<svg id="Layer_1" data-name="Layer 1" xmlns="http://www.w3.org/2000/svg" viewBox="0 0 659 206"><defs><style>.cls-1{fill:#0090d1;}.cls-2{fill:#343c41;}</style></defs><title>ayam_logo</title><text x="-354" y="-300.05"/><path class="cls-1" d="M457,300.05a103,103,0,1,0,103,103A103,103,0,0,0,457,300.05Zm48.4,91.47a18.44,18.44,0,0,1-11.25-4.11l-18,18c-1.52,18.18-6.93,38.53-20.35,51.94C441.13,472,416.46,474,401.31,458.83c-15.37-15.37-13.42-39.82,1.51-54.75,13.2-13.42,33.55-18.62,51.94-20.13l18-18.18a16.7,16.7,0,0,1-4.11-11c-.22-15.58,18.83-24,30.08-12.77a17.75,17.75,0,0,1,5,14.29,18.13,18.13,0,0,1,14.5,5.19C529.42,372.7,521,391.74,505.4,391.52Z" transform="translate(-354 -300.05)"/><path class="cls-1" d="M498.91,361.23c1.3-6.5,2.6-11.26-2.81-16.67-8.88-8.87-24-2.38-23.81,10,0,5.19,2.16,8,5.63,11.47l-18.18,18.18,9.74,1.51-3.68,3.46,13.42,1.09-1.3,8.22,16.23-16.23c3.46,3.46,6.27,5.62,11.25,5.62,12.34.22,19.05-14.93,10.17-23.8C510.38,358.84,505.19,359.49,498.91,361.23Z" transform="translate(-354 -300.05)"/><path class="cls-1" d="M454.76,439.57S442,462.08,418,455.37c-2.16-.65-3.25,2.81-.87,3.46C443.72,466.19,458,441.52,458,441.3A1.84,1.84,0,0,0,454.76,439.57Z" transform="translate(-354 -300.05)"/><path class="cls-2" d="M688,371.38v54c0,3-1.68,4.66-4.66,4.66H665.46c-3,0-4.66-1.68-4.66-4.66v-2.66c-5,5.84-12.33,9.92-24,9.92-16.4,0-30.75-9.69-30.75-29.07s14.35-29.06,30.75-29.06c11.71,0,19,3.3,24,7.1v-8.41c0-9.13-3.73-13.23-11.55-13.23-5.78,0-9.32,2.24-10.81,5.4-1.12,2.61-2.05,4.1-4.85,4.1H615.33c-3,0-4.84-1.67-4.66-4.84,2.42-20.13,19.57-30.38,38.58-30.38C669.74,334.29,688,346.22,688,371.38ZM660.8,403.61c0-5.77-5-9.31-14.16-9.31-8.57,0-12.67,3.91-12.67,9.31s4.1,9.32,12.67,9.32C655.77,412.93,660.8,409,660.8,403.61Z" transform="translate(-354 -300.05)"/><path class="cls-2" d="M763.29,336.9h20.13c3.35,0,5,1.87,3.91,5.22l-40.25,121.5c-.75,2.61-2.8,3.72-5.4,3.72H721.55c-3.35,0-5-1.86-3.91-5.21l11.18-33.54L696,342.31c-1.12-3.17.37-5.41,3.73-5.41h20.12a5.21,5.21,0,0,1,5.22,3.73L742.79,390l15.28-49.19A5,5,0,0,1,763.29,336.9Z" transform="translate(-354 -300.05)"/><path class="cls-2" d="M870.07,371.38v54c0,3-1.68,4.66-4.66,4.66H847.52c-3,0-4.65-1.68-4.65-4.66v-2.66c-5,5.84-12.34,9.92-24,9.92-16.4,0-30.75-9.69-30.75-29.07s14.35-29.06,30.75-29.06c11.7,0,19,3.3,24,7.1v-8.41c0-9.13-3.73-13.23-11.56-13.23-5.78,0-9.32,2.24-10.81,5.4-1.11,2.61-2,4.1-4.84,4.1H797.4c-3,0-4.85-1.67-4.66-4.84,2.42-20.13,19.56-30.38,38.57-30.38C851.81,334.29,870.07,346.22,870.07,371.38Zm-27.2,32.23c0-5.77-5-9.31-14.17-9.31-8.57,0-12.67,3.91-12.67,9.31s4.1,9.32,12.67,9.32C837.83,412.93,842.87,409,842.87,403.61Z" transform="translate(-354 -300.05)"/><path class="cls-2" d="M984.12,334.3c18.26,0,28.88,11.55,28.88,33v58.14c0,3-1.68,4.66-4.66,4.66H989.71c-3,0-4.66-1.68-4.66-4.66V369.7c0-7.45-4.47-9.69-9.69-9.69-5.59,0-10.81,2.8-10.81,11.93v53.48c0,3-1.68,4.66-4.66,4.66H941.26c-3,0-4.66-1.68-4.66-4.66V369.7c0-7.45-4.47-9.69-9.69-9.69-5.59,0-10.81,2.8-10.81,11.93v53.48c0,3-1.68,4.66-4.66,4.66H892.81c-3,0-4.66-1.68-4.66-4.66V341.56c0-3,1.68-4.65,4.66-4.65h18.63c3,0,4.66,1.67,4.66,4.65v3.81c4.27-6.45,11.7-11.07,21.43-11.07,9.41,0,16.91,3.8,21.61,11.09,6-6.46,13.8-11.1,25-11.1Z" transform="translate(-354 -300.05)"/><path d="M794.87,452.08h-3.43V466h-1.81V452.08h-2.38v-1.56h2.38v-2.18a3.82,3.82,0,0,1,4.09-3.84,4.92,4.92,0,0,1,1.92.34l-.53,1.58a3.2,3.2,0,0,0-1.23-.23,2.25,2.25,0,0,0-2.44,2.52v1.81h3.43Z" transform="translate(-354 -300.05)"/><path d="M797,458.34c0-4.75,2.8-8,6.82-8s6.82,3.28,6.82,8-2.81,8-6.82,8S797,463.06,797,458.34Zm11.83,0c0-3.47-1.8-6.4-5-6.4s-5,2.93-5,6.4,1.8,6.35,5,6.35S808.85,461.81,808.85,458.34Z" transform="translate(-354 -300.05)"/><path d="M814.6,450.52h1.75v2.38h.13a4.45,4.45,0,0,1,4.24-2.61l.94,0v1.82a7.56,7.56,0,0,0-1.08-.1,4,4,0,0,0-4.18,4v10h-1.8Z" transform="translate(-354 -300.05)"/><path d="M833.1,445.36h7c4,0,6.07,2.3,6.07,5.4a4.3,4.3,0,0,1-3.28,4.51v.16c2,.14,4.08,2,4.08,5.17s-2,5.41-6.48,5.41H833.1Zm7.14,9.33a3.84,3.84,0,0,0,4.08-3.93c0-2.19-1.43-3.71-4.26-3.71H835v7.64Zm.21,9.63c3.19,0,4.68-1.59,4.68-3.72a4.28,4.28,0,0,0-4.6-4.24H835v8Z" transform="translate(-354 -300.05)"/><path d="M853.37,466h-1.88V445.36h1.88Z" transform="translate(-354 -300.05)"/><path d="M875,466h-1.84l-12.2-17.3h-.16V466h-1.89V445.36h1.83l12.24,17.31h.16V445.36H875Z" transform="translate(-354 -300.05)"/><path d="M896.09,445.36V459c0,4.22-3.16,7.34-7.82,7.34s-7.84-3.12-7.83-7.34V445.36h1.89V458.9c0,3.29,2.34,5.69,5.94,5.69s5.94-2.4,5.94-5.69V445.36Z" transform="translate(-354 -300.05)"/><path d="M907.88,446.76c-2.88,0-4.87,1.62-4.87,3.84s2.11,3.2,4.11,3.76l2.18.63c2.62.73,5.61,2.11,5.61,5.54s-2.68,5.84-7.16,5.84c-4.22,0-6.88-2.25-7.1-5.52h1.93c.21,2.45,2.39,3.79,5.17,3.79,3.09,0,5.33-1.66,5.33-4.14,0-2.11-1.75-3.07-4.31-3.82L906.3,456c-3.24-1-5.12-2.63-5.12-5.28,0-3.33,2.94-5.62,6.75-5.62s6.56,2.32,6.7,5.46H912.8C912.57,448.22,910.61,446.76,907.88,446.76Z" transform="translate(-354 -300.05)"/><path d="M921.64,445.36l7.5,18h.18l7.49-18H939V466h-1.77V449.34h-.17l-7,16.67h-1.71l-7-16.67h-.16V466h-1.78V445.36Z" transform="translate(-354 -300.05)"/><path d="M943.34,461.69c0-3.07,2.45-4.05,5.95-4.48,2.61-.33,4.06-.34,4.06-1.52v-.36c0-2.12-1.3-3.41-3.65-3.41a4.31,4.31,0,0,0-4.21,2.47l-1.7-.61c1.05-2.53,3.49-3.47,5.86-3.47s5.49,1,5.49,5.18V466h-1.79v-2.45h-.11a5.12,5.12,0,0,1-4.8,2.81C945.62,466.37,943.34,464.67,943.34,461.69Zm10-1.62v-2.24c-.53.52-2.79.8-4.06.95-2.62.32-4.15,1.11-4.15,3s1.51,3,3.54,3A4.51,4.51,0,0,0,953.35,460.07Z" transform="translate(-354 -300.05)"/><path d="M958.87,471.49l.48-1.59c1.83.58,3,.17,3.9-2.16l.56-1.58-5.7-15.64h1.95l4.6,13.12h.14l4.6-13.12,2,0-6.57,17.91c-.83,2.24-2.25,3.35-4.19,3.35A4.67,4.67,0,0,1,958.87,471.49Z" transform="translate(-354 -300.05)"/><path d="M973.61,461.69c0-3.07,2.45-4.05,5.95-4.48,2.6-.33,4.05-.34,4.05-1.52v-.36c0-2.12-1.3-3.41-3.65-3.41a4.29,4.29,0,0,0-4.2,2.47l-1.71-.61c1.05-2.53,3.49-3.47,5.86-3.47s5.5,1,5.5,5.18V466h-1.8v-2.45h-.11a5.1,5.1,0,0,1-4.8,2.81C975.89,466.37,973.61,464.67,973.61,461.69Zm10-1.62v-2.24c-.52.52-2.78.8-4.05.95-2.62.32-4.16,1.11-4.16,3s1.52,3,3.54,3A4.5,4.5,0,0,0,983.61,460.07Z" transform="translate(-354 -300.05)"/><path d="M998.05,460.85h1.83a4,4,0,0,0,4.26,3.75,4.78,4.78,0,0,0,4.77-5.08,4.89,4.89,0,0,0-4.89-5.14,6.05,6.05,0,0,0-3.7,1.25l-1.88-.24,1.24-10h10.2v1.69h-8.62l-.83,6.91h.1a5.93,5.93,0,0,1,3.76-1.3c3.64,0,6.45,2.83,6.44,6.83a6.51,6.51,0,0,1-6.59,6.81C1000.71,466.3,998.14,464,998.05,460.85Z" transform="translate(-354 -300.05)"/></svg>