<svg id="Layer_1" data-name="Layer 1" xmlns="http://www.w3.org/2000/svg" viewBox="0 0 206 206"><defs><style>.cls-1{fill:#0090d1;}</style></defs><title>logo_alt</title><text x="-700.75" y="-240.81"/><path class="cls-1" d="M803.75,240.81a103,103,0,1,0,103,103A103,103,0,0,0,803.75,240.81Zm48.4,91.47a18.43,18.43,0,0,1-11.25-4.12l-18,18c-1.51,18.18-6.92,38.52-20.34,51.94-14.72,14.71-39.39,16.66-54.54,1.51-15.36-15.36-13.41-39.82,1.52-54.75,13.2-13.42,33.54-18.61,51.94-20.13l18-18.18a16.68,16.68,0,0,1-4.11-11c-.22-15.59,18.83-24,30.08-12.77a17.73,17.73,0,0,1,5,14.28,18.13,18.13,0,0,1,14.5,5.19C876.17,313.45,867.73,332.49,852.15,332.28Z" transform="translate(-700.75 -240.81)"/><path class="cls-1" d="M845.66,302c1.3-6.49,2.59-11.26-2.82-16.67-8.87-8.87-24-2.38-23.8,10,0,5.19,2.16,8,5.63,11.47l-18.18,18.18,9.73,1.51-3.67,3.47L826,331l-1.29,8.22L840.9,323c3.46,3.46,6.27,5.63,11.25,5.63,12.34.21,19-14.93,10.17-23.81C857.13,299.6,851.93,300.25,845.66,302Z" transform="translate(-700.75 -240.81)"/><path class="cls-1" d="M801.51,380.32s-12.77,22.51-36.79,15.8c-2.17-.65-3.25,2.81-.87,3.46,26.62,7.36,40.9-17.31,40.9-17.53A1.84,1.84,0,0,0,801.51,380.32Z" transform="translate(-700.75 -240.81)"/></svg>